<?xml version="1.0" standalone="no"?>
<!DOCTYPE svg PUBLIC "-//W3C//DTD SVG 1.1//EN" "http://www.w3.org/Graphics/SVG/1.1/DTD/svg11.dtd" >
<svg xmlns="http://www.w3.org/2000/svg">
<metadata>Generated by IcoMoon</metadata>
<defs>
<font id="icomoon" horiz-adv-x="1024">
<font-face units-per-em="1024" ascent="960" descent="-64" />
<missing-glyph horiz-adv-x="1024" />
<glyph unicode="&#x20;" horiz-adv-x="512" d="" />
<glyph unicode="&#xe900;" glyph-name="tab-home" horiz-adv-x="986" d="M969.345 530.657l-362.934 378.541c-31.727 33.14-74.18 50.609-120.357 50.802-41.297-0.321-79.767-15.607-109.824-43.159-9.955 15.093-27.103 25.048-46.499 25.112l-135.386 0.193c-0.064 0-0.064 0-0.064 0-14.9 0-28.901-5.78-39.434-16.313s-16.313-24.534-16.313-39.434l0.257-224.658-122.284-131.789c-16.763-18.111-21.066-43.416-11.175-66.023 9.826-22.607 31.342-36.672 56.004-36.672 5.588 0 10.148-4.56 10.148-10.148v-386.569c0-52.151 42.453-94.539 94.539-94.539h616.558c52.151 0 94.539 42.453 94.539 94.539v386.569c0 5.588 4.56 10.148 10.148 10.148h37.957c24.855 0 46.435 14.194 56.197 37.122 9.826 22.864 5.138 48.297-12.074 66.28zM188.243 892.436c0.963 0.963 2.954 2.505 6.037 2.505l135.322-0.193c4.688 0 8.478-3.789 8.478-8.478v-9.698l-152.149-164.030-0.064 55.876-0.128 118.045c0 3.019 1.606 5.074 2.505 5.973zM938.067 482.938c-1.092-2.569-4.496-8.478-12.781-8.478h-37.957c-31.599 0-57.353-25.754-57.353-57.353v-386.505c0-26.139-21.258-47.334-47.334-47.334h-158.186v284.13c0 44.187-35.773 79.96-79.96 79.96h-136.606c-44.122 0.064-79.96-35.773-79.96-79.96v-284.13h-161.911c-26.139 0-47.334 21.258-47.334 47.334v386.569c0 31.599-25.754 57.353-57.353 57.353-8.221 0-11.689 5.844-12.781 8.349s-3.019 8.991 2.569 15.029l350.025 377.256c22.222 24.020 52.536 37.379 85.291 37.636 0.385 0 0.706 0 1.028 0 32.305 0 62.426-12.845 84.905-36.223l362.934-378.541c5.78-5.973 3.853-12.588 2.762-15.093z" />
<glyph unicode="&#xe901;" glyph-name="tab-mall" horiz-adv-x="1113" d="M949.713 782.509h-204.090v136.76c0 22.395-18.119 40.514-40.441 40.514h-319.47c-22.322 0-40.441-18.119-40.441-40.514v-136.76h-177.346c-92.551 0-167.925-75.447-167.925-168.142v-510.224c0-92.696 75.302-168.142 167.925-168.142h781.788c92.623 0 167.925 75.447 167.925 168.142v510.224c0 92.696-75.302 168.142-167.925 168.142zM1067.63 104.142c0-65.083-52.907-118.062-117.917-118.062h-781.788c-65.010 0-117.917 52.979-117.917 118.062v230.108h411.151v-49.066c0-46.529 37.76-84.288 84.288-84.288s84.288 37.76 84.288 84.288v49.066h437.894v-230.108zM1067.63 384.331h-437.894v40.224c0 46.529-37.76 84.288-84.288 84.288s-84.288-37.76-84.288-84.288v-40.224h-411.151v230.036c0 65.083 52.907 118.062 117.917 118.062h781.788c65.010 0 117.917-52.979 117.917-118.062v-230.036z" />
<glyph unicode="&#xe902;" glyph-name="tab-message" horiz-adv-x="1335" d="M658.509 460.079l466.466 407.984c1.999 1.738 4.258 2.694 6.604 3.737-34.064 20.16-75.079 31.978-119.136 31.978h-696.396c-46.403 0-89.331-13.208-124.524-35.454 0.174-0.174 0.348-0.174 0.521-0.261l466.466-407.984zM1183.804 833.651l-34.933 32.76-6.691-47.62-380.090-332.296 411.112-434.922 18.335 18.683c36.931 37.714 57.179 86.029 57.179 135.908v484.019c0 53.703-23.028 104.625-64.912 143.468zM1198.403 206.164c0-28.329-9.124-56.223-26.069-80.467l-337.771 357.322 334.295 292.41c19.204-25.287 29.458-54.745 29.458-85.16v-484.106zM658.075 389.692l-81.771 71.517-417.542-420.149 23.289-17.293c41.45-30.849 93.849-47.881 147.639-47.881h667.807c46.316 0 91.155 12.339 129.477 35.628l26.591 16.163-411.547 435.443-83.943-73.428zM997.496 26.113h-667.807c-32.673 0-64.739 7.821-92.546 22.333l341.594 343.766 46.316-40.581c18.248-15.902 47.62-15.989 65.955 0l47.707 41.711 333.686-352.978c-23.462-9.385-48.836-14.251-74.906-14.251zM181.963 819.574l-16.337 30.762-24.071-25.2c-35.802-37.366-55.527-85.073-55.527-134.257v-484.714c0-43.101 14.773-84.464 42.754-119.658l17.64-22.159 417.977 420.584-382.436 334.642zM136.342 206.164v484.714c0 27.981 8.864 55.441 25.287 79.511l329.255-287.978-338.466-340.551c-10.601 20.073-16.076 41.971-16.076 64.304z" />
<glyph unicode="&#xe903;" glyph-name="back" horiz-adv-x="514" d="M506.223 2.288l-427.042 425.704c-11.068 10.947-11.068 28.826 0 39.773l426.92 424.487c9.852 9.73 9.852 25.664 0.122 35.516v0c-9.73 9.852-25.664 9.852-35.516 0.122l-462.558-460.125c-10.947-10.947-11.068-28.705-0.122-39.651l4.014-4.014 11.555-11.676 447.232-445.651c9.852-9.73 25.664-9.73 35.394 0v0c9.852 9.852 9.852 25.785 0 35.516z" />
<glyph unicode="&#xe904;" glyph-name="right" horiz-adv-x="514" d="M7.298 2.288l427.042 425.582c11.068 10.947 11.068 28.826 0 39.773l-426.92 424.487c-9.852 9.852-9.852 25.785-0.122 35.637v0c9.73 9.852 25.664 9.852 35.516 0.122l462.558-460.125c10.947-10.947 11.068-28.705 0.122-39.651l-4.014-4.014-11.555-11.676-447.232-445.651c-9.852-9.73-25.664-9.73-35.394 0v0c-9.852 9.852-9.852 25.785 0 35.516z" />
<glyph unicode="&#xe905;" glyph-name="add" horiz-adv-x="1023" d="M956.982 514.073h-379.94v379.94c0 36.43-29.557 65.987-65.987 65.987s-65.987-29.557-65.987-65.987v-379.94h-380.112c-36.43 0-65.987-29.557-65.987-65.987s29.557-65.987 65.987-65.987h379.94v-379.94c0-36.43 29.557-65.987 65.987-65.987s65.987 29.557 65.987 65.987v379.94h379.94c36.43 0 65.987 29.557 65.987 65.987 0.172 36.43-29.385 65.987-65.815 65.987z" />
<glyph unicode="&#xe906;" glyph-name="tab-personal" horiz-adv-x="998" d="M758.482 493.866c33.393 48.010 52.948 106.35 52.948 169.237 0 163.975-132.986 296.896-296.896 296.896-103.881 0-195.224-53.272-248.301-134.026 0 0-102.517-150.202-9.745-309.825 4.353-7.471 8.965-14.682 13.903-21.764-56.911-26.831-269.481-145.85-268.181-428.128 0.39-71.853 59.184-130.258 131.102-130.258h733.275c71.398 0 128.958 55.936 131.037 127.399 3.508 120.837-23.453 334.707-239.141 430.467zM946.17 64.893c-1.234-43.463-36.251-77.44-79.584-77.44h-733.275c-43.657 0-79.389 35.407-79.584 78.999-1.364 287.736 238.427 381.937 248.626 385.835 0.845 0.325 1.689 0.715 2.469 1.104 53.792-53.662 127.659-87.185 209.711-87.185 81.728 0 155.724 33.003 209.387 86.405 0.13-0.065 0.195-0.065 0.325-0.13 190.481-76.595 225.823-253.044 221.925-387.589z" />
<glyph unicode="&#xe907;" glyph-name="choose" horiz-adv-x="1028" d="M969.76 506.040h-47.503c-10.537 93.279-49.231 175.849-112.453 239.072-63.395 63.741-145.619 102.089-238.553 111.417v47.158c0 31.093-25.22 56.313-56.313 56.313s-56.313-25.22-56.313-56.313v-48.885c-90.17-11.228-173.949-51.131-237.344-113.317-63.914-62.704-104.68-145.965-115.39-235.444h-47.503c-31.093 0-56.313-25.22-56.313-56.313v-1.727c0-31.093 25.22-56.313 56.313-56.313h47.503c10.71-89.652 51.131-172.912 114.526-235.789 62.877-62.359 146.483-102.78 236.48-114.699v-48.885c0-31.093 25.22-56.313 56.313-56.313h1.727c31.093 0 56.313 25.22 56.313 56.313v47.158c92.761 9.328 174.985 48.022 238.553 112.281 62.186 62.877 101.744 147.52 112.281 239.935h47.503c31.093 0 56.313 25.22 56.313 56.313v1.727c0.173 31.093-25.047 56.313-56.14 56.313zM996.362 448c0-14.683-11.919-26.602-26.602-26.602h-60.977c-7.773 0-14.165-5.873-14.856-13.646-15.547-187.422-154.775-327.169-338.57-339.951-7.773-0.518-13.819-7.082-13.819-14.856v-60.804c0-14.683-11.919-26.602-26.602-26.602h-1.727c-14.683 0-26.602 11.919-26.602 26.602v62.186c0 7.601-5.7 13.992-13.301 14.683-184.313 18.656-323.887 157.884-339.26 338.915-0.691 7.601-7.082 13.646-14.856 13.646h-60.804c-14.683 0-26.602 11.919-26.602 26.602v1.727c0 14.683 11.919 26.602 26.602 26.602h60.977c7.773 0 14.165 5.873 14.856 13.646 15.374 181.204 155.638 319.741 340.988 336.842 7.601 0.691 13.474 7.082 13.474 14.683v62.186c0 14.683 11.919 26.602 26.602 26.602s26.602-11.919 26.602-26.602v-60.804c0-7.773 6.046-14.337 13.819-14.856 186.731-12.955 322.677-148.901 338.57-338.224 0.691-7.601 7.082-13.646 14.856-13.646h60.977c14.683 0 26.602-11.919 26.602-26.602v-1.727zM637.754 573.409c-16.756 16.756-36.794 30.057-58.559 39.039s-45.43 13.646-69.096 13.646-47.331-4.664-69.096-13.646c-21.765-8.982-41.803-22.456-58.559-39.039-16.756-16.756-30.057-36.621-39.212-58.559-8.982-21.765-13.819-45.43-13.819-68.923 0-23.665 4.664-47.158 13.819-68.923 8.982-21.765 22.456-41.803 39.212-58.559s36.794-30.057 58.559-39.039c21.765-8.982 45.43-13.646 69.096-13.646s47.331 4.664 69.096 13.646c21.765 8.982 41.803 22.456 58.559 39.039 16.756 16.756 30.057 36.621 39.039 58.559 8.982 21.765 13.819 45.43 13.819 68.923 0 23.665-4.664 47.158-13.819 68.923-8.982 21.938-22.456 41.976-39.039 58.559z" />
<glyph unicode="&#xe908;" glyph-name="search" d="M811.147 821.31c-184.977 184.977-486.103 184.977-671.253 0-184.977-185.149-184.977-486.275 0-671.253 92.575-92.575 214.057-138.69 335.54-138.69s243.138 46.287 335.712 138.69c184.977 184.977 184.977 486.103 0 671.253zM786.885 174.148c-171.728-171.728-451.173-171.728-622.9 0s-171.728 451.173 0 622.9c171.728 171.728 451.173 171.556 622.9 0 171.728-171.728 171.728-451.173 0-622.9zM1006.793 42.685l-88.445 88.445c-24.434 24.434-64.011 24.434-88.273 0-24.434-24.434-24.434-64.011 0-88.445l88.273-88.445c24.434-24.434 64.011-24.434 88.445 0s24.434 64.011 0 88.445z" />
<glyph unicode="&#xe909;" glyph-name="small-man" horiz-adv-x="622" d="M438.286 334.896c-23.133 19.382-36.138 48.143-35.513 78.279 1.751 83.531 0.75 163.685-0.125 209.327-0.5 24.634-11.629 47.893-30.636 63.648l-61.397 51.144c62.898 1.376 113.291 50.644 113.291 111.416 0 61.523-51.769 111.291-115.792 111.291s-115.792-49.893-115.792-111.291c0-45.142 27.885-84.031 68.025-101.537-18.757-2.251-41.64-5.502-59.147-9.879-8.753-2.501-22.133-8.878-37.889-19.007-82.28-52.519-131.423-143.803-131.423-241.463v-37.264c0-18.632 9.003-36.513 24.634-46.767 6.878-4.502 15.005-7.753 24.384-7.753 10.129 0 18.382 3.751 24.884 8.878 12.755 9.879 19.632 25.509 19.132 41.64-0.875 26.385-1.501 80.029 5.002 96.535 13.38 35.638 84.656 80.279 84.656 80.279v-186.943c0-84.656 46.517-162.309 121.044-202.324 26.385-14.13 50.644-24.884 70.526-43.016 49.018-44.516 93.659-164.935 111.416-200.573s49.018-62.523 84.656-26.76c35.638 35.638-44.516 240.713-62.398 276.351-12.63 38.139-63.523 73.902-101.537 105.789zM244.59 234.984v0c-26.135 23.509-66.524 20.007-88.282-7.503-29.386-37.139-72.652-92.409-122.42-157.808-11.004-14.38-19.882-30.261-26.26-47.267-13.005-35.263-11.254-64.899 19.757-78.654 35.638-17.757 58.021 0 102.538 49.018 47.267 60.522 93.034 121.044 122.67 160.434 18.882 25.384 15.381 60.772-8.003 81.78zM620.227 492.579c-4.001 16.756-14.255 31.261-28.26 41.14l-81.405 57.146c-28.886 20.257-68.775-0.375-68.775-35.763v0c0-14.255 7.003-27.76 18.757-35.888l85.406-59.147c12.129-8.378 26.76-12.88 41.515-11.879 10.254 0.625 21.008 3.876 28.135 12.755 7.253 9.003 7.253 20.758 4.627 31.637z" />
<glyph unicode="&#xe90a;" glyph-name="del" horiz-adv-x="1095" d="M1046.633 817.21h-303.98v13.985c0 67.347-58.882 128.621-123.653 128.621h-142.606c-69.187 0.184-115.741-66.427-115.741-128.437v-13.985h-311.892c-26.865-0.184-48.762-22.081-48.762-48.946s21.897-48.946 48.762-48.946h97.892v-600.967c0-104.148 80.411-182.535 187.135-182.535h427.633c109.484 0 195.048 80.227 195.048 182.535v600.967h89.98c26.865 0 48.762 21.897 48.762 48.946s-21.713 48.762-48.578 48.762zM906.787 744.344v-625.808c0-74.339-63.85-132.669-145.182-132.669h-427.817c-79.675 0-137.453 55.754-137.453 132.669v625.808c0 10.488-6.44 19.321-15.641 23.185h204.616c13.801 0 24.841 11.224 24.841 24.841v39.010c0 37.353 27.049 78.755 65.875 78.755h142.606c37.169 0 73.787-39.010 73.787-78.755v-39.010c0-13.801 11.224-24.841 24.841-24.841h204.8c-8.832-3.68-15.273-12.696-15.273-23.185zM619 887.133h-142.606c-26.129 0-42.69-37.537-42.69-70.843v-49.498h237.369v49.498c0 33.305-25.945 70.843-52.074 70.843zM551.654 617.563c-13.065 0-23.369-10.672-23.369-23.737v-403.896c0-13.065 10.12-23.737 23.369-23.737 13.065 0 23.369 10.672 23.369 23.737v403.712c0 13.249-10.304 23.921-23.369 23.921zM361.574 569.905c-13.065 0-23.921-10.672-23.921-23.737v-308.948c0-13.065 10.856-23.737 23.921-23.737s23.921 10.672 23.921 23.737v308.948c0.184 13.065-10.856 23.737-23.921 23.737zM694.259 546.168v-308.948c0-13.065 10.856-23.737 24.105-23.737 13.065 0 23.921 10.672 23.921 23.737v308.948c0 13.065-10.856 23.737-23.921 23.737s-24.105-10.672-24.105-23.737z" />
<glyph unicode="&#xe90b;" glyph-name="star" horiz-adv-x="1090" d="M366.787 708.944l92.292 189.711c39.371 81.122 154.918 81.854 195.388 1.099l94.489-188.612c7.508-15.199 22.157-25.637 39.004-28.017l208.755-28.933c89.362-12.452 125.803-121.957 61.528-185.316l-150.157-148.143c-12.086-11.903-17.579-28.933-14.466-45.78l36.624-207.474c15.748-88.813-77.093-157.299-157.299-115.731l-187.33 97.053c-15.016 7.874-32.961 7.691-47.977-0.366l-186.049-99.25c-79.657-42.484-173.413 24.721-158.764 113.9l34.426 208.023c2.747 16.664-2.93 33.694-15.016 45.597l-151.989 146.312c-65.007 62.627-30.031 172.681 59.147 186.049l208.572 31.496c17.030 2.564 31.496 13.185 38.821 28.383z" />
<glyph unicode="&#xe90c;" glyph-name="star2" horiz-adv-x="1090" d="M295.554-58.323c-25.454 0-50.724 7.874-72.332 23.439-38.821 27.834-58.049 74.346-50.175 121.225l32.778 198.684c1.648 9.339-1.648 18.861-8.423 25.454l-145.030 139.72c-34.243 33.328-46.695 82.037-32.229 127.451s52.738 78.009 99.8 85.15l199.050 30.215c9.339 1.465 17.579 7.325 21.608 15.931l88.080 181.104c21.059 42.85 63.542 69.585 111.336 69.951 0.183 0 0.549 0 0.732 0 47.428 0 89.911-26.186 111.153-68.67l90.278-180.006c4.212-8.423 12.452-14.283 21.791-15.748l199.416-27.834c47.245-6.592 85.883-38.821 100.898-84.052s3.296-94.123-30.764-127.634l-143.382-141.368c-6.775-6.592-9.888-16.298-8.24-25.637l35.159-198.318c8.423-46.878-10.255-93.574-48.71-121.957-38.455-28.2-88.446-32.229-130.93-10.255l-178.907 92.658c-8.423 4.395-18.495 4.212-26.918-0.183l-177.625-94.856c-18.312-9.522-38.272-14.466-58.415-14.466zM540.75 919.348c-0.183 0-0.366 0-0.549 0-32.595-0.183-60.429-17.763-74.712-47.062l-88.080-181.104c-10.072-20.509-29.482-34.976-52.189-38.272l-199.050-30.215c-32.229-4.944-57.316-26.369-67.205-57.316s-1.831-62.993 21.608-85.7l145.030-139.72c16.481-15.931 24.172-38.821 20.326-61.528l-32.778-198.684c-5.31-32.046 7.325-62.627 33.694-81.671s59.33-21.242 88.080-5.86l177.625 94.856c20.143 10.804 44.315 10.987 64.641 0.366l179.090-92.475c28.933-15.016 61.894-12.452 88.080 6.959 26.186 19.227 38.455 49.991 32.778 82.037l-35.159 198.318c-4.029 22.524 3.296 45.597 19.594 61.711l143.382 141.368c23.256 22.89 30.947 54.936 20.692 85.883s-35.525 52.006-67.937 56.584l-199.416 27.834c-22.707 3.113-42.3 17.213-52.555 37.722l-90.278 180.006c-14.466 28.75-42.484 45.963-74.712 45.963z" />
<glyph unicode="&#xe90d;" glyph-name="redact" horiz-adv-x="1025" d="M731.773 220.827l8.949-0.861 187.074 159.193-3.614 22.373-366.058 366.231-181.911-185.869 355.56-361.068zM313.74 645.4l188.278 178.641-133.206 133.206-54.212 2.754-135.443-134.927 8.089-51.286 126.494-128.387zM983.901 129.097l40.616-13.424-16.35 59.375-53.523 128.215-129.248-105.842 158.505-68.324zM973.058 38.056h-922.116c-28.052 0-50.942-22.717-50.942-50.942s22.889-51.114 50.942-51.114h922.116c28.225 0 50.942 22.889 50.942 50.942 0 28.397-22.717 51.114-50.942 51.114v0zM51.458 166.099h511.484c28.397 0 51.458 23.062 51.458 51.458s-23.062 51.458-51.458 51.458h-511.484c-28.397 0.172-51.458-22.889-51.458-51.458 0-28.397 23.062-51.458 51.458-51.458v0z" />
<glyph unicode="&#xe90e;" glyph-name="payment" horiz-adv-x="1015" d="M492.386-2.771c-121.775 1.535-236.216 49.801-322.345 135.931-181.127 181.127-181.127 475.843 0 656.799 180.957 181.127 475.672 181.127 656.799 0 93.292-93.292 142.582-222.401 135.249-354.239-0.512-9.38 6.652-17.567 16.203-18.079s17.567 6.652 18.079 16.203c7.845 141.559-45.026 280.219-145.311 380.504-194.43 194.43-510.806 194.43-705.237 0s-194.43-510.806 0-705.237c92.44-92.44 215.408-144.288 346.223-145.993 0 0 0.171 0 0.171 0 9.38 0 17.055 7.504 17.055 16.885 0.171 9.38-7.334 17.226-16.885 17.226zM486.417 728.219c-9.38 0-17.055-7.675-17.055-17.055v-288.405c0-9.38 7.675-17.055 17.055-17.055h116.999c9.38 0 17.055 7.675 17.055 17.055s-7.675 17.055-17.055 17.055h-99.773v271.179c-0.171 9.551-7.845 17.226-17.226 17.226zM787.784 390.353c-125.356 0-227.177-101.65-227.177-227.177s101.65-227.177 227.177-227.177c125.527 0 227.177 101.65 227.177 227.177-0.171 125.356-101.82 227.177-227.177 227.177zM787.784 286.145c62.763 0 113.759-25.071 113.759-56.112s-50.995-56.112-113.759-56.112c-62.763 0-113.759 25.071-113.759 56.112-0.171 31.041 50.825 56.112 113.759 56.112zM787.784 40.208c-62.934 0-114.1 25.242-114.1 56.282 0 1.023 0.171 1.876 0.341 2.899 18.079-22.172 62.252-38.033 113.759-38.033s95.68 15.691 113.759 38.033c0.171-1.023 0.341-1.876 0.341-2.899-0.171-31.211-51.166-56.282-114.1-56.282zM787.784 85.916c-62.934 0-114.1 25.242-114.1 56.282 0 1.023 0.171 1.876 0.341 2.899 18.079-22.172 62.252-37.863 113.759-37.863s95.68 15.691 113.759 37.863c0.171-1.023 0.341-1.876 0.341-2.899-0.171-31.041-51.166-56.282-114.1-56.282zM787.784 131.795c-62.934 0-114.1 25.242-114.1 56.282 0 1.023 0.171 1.876 0.341 2.899 18.079-22.172 62.252-37.863 113.759-37.863s95.68 15.691 113.759 37.863c0.171-1.023 0.341-1.876 0.341-2.899-0.171-31.211-51.166-56.282-114.1-56.282z" />
<glyph unicode="&#xe90f;" glyph-name="options" horiz-adv-x="1031" d="M1013.783 960h-455.284c-9.525 0-17.145-7.62-17.145-17.145v-455.111c0-9.525 7.62-17.145 17.145-17.145h455.111c9.525 0 17.145 7.62 17.145 17.145v455.111c0.173 9.525-7.62 17.145-16.971 17.145zM996.638 504.889h-420.995v420.822h420.995v-420.822zM1013.783 425.4h-455.284c-9.525 0-17.145-7.62-17.145-17.145v-455.111c0-9.525 7.62-17.145 17.145-17.145h455.111c9.525 0 17.145 7.62 17.145 17.145v455.111c0.173 9.525-7.62 17.145-16.971 17.145zM996.638-29.711h-420.995v420.822h420.995v-420.822zM474.853 425.4h-455.284c-9.525 0-17.145-7.62-17.145-17.145v-455.111c0-9.525 7.62-17.145 17.145-17.145h455.111c9.525 0 17.145 7.62 17.145 17.145v455.111c0.173 9.525-7.62 17.145-16.971 17.145zM457.709-29.711h-420.995v420.822h420.995v-420.822zM314.664 949.263h-134.732c-97.845 0-177.507-79.489-177.507-177.334v-134.732c0-97.845 79.489-177.334 177.334-177.334h134.732c97.845 0 177.334 79.489 177.334 177.334v134.732c0.173 97.845-79.489 177.334-177.161 177.334zM457.709 637.197c0-78.969-64.249-143.045-143.045-143.045h-134.732c-78.969 0-143.045 64.249-143.045 143.045v134.732c-0.173 78.969 64.076 143.045 142.872 143.045h134.732c78.969 0 143.045-64.249 143.045-143.045v-134.732z" />
<glyph unicode="&#xe910;" glyph-name="address" horiz-adv-x="744" d="M372.216 960c-203.925 0-370.716-166.791-370.716-370.716 0-64.891 18.505-129.782 46.386-185.295l231.682-398.472c55.639-92.648 139.034-92.648 185.295 0l213.177 379.968c37.009 55.639 64.891 129.782 64.891 203.925 0 203.8-166.791 370.59-370.716 370.59zM372.216 377.983c-118.154 0-213.802 95.773-213.802 213.802 0 118.154 95.773 213.802 213.802 213.802 118.154 0 213.802-95.773 213.802-213.802s-95.773-213.802-213.802-213.802z" />
<glyph unicode="&#xe911;" glyph-name="home-address" horiz-adv-x="1063" d="M938.28 230.128c-60.54 22.502-130.902 35.538-179.298 42.324-22.323 3.036-42.86-12.501-46.075-34.645-1.25-9.644 5.358-18.394 15.001-19.823 9.644-1.25 18.394 5.358 19.823 15.001 0.536 3.036 3.393 5.179 6.429 4.822 131.259-18.573 271.448-61.433 271.448-125.902v-0.179c-0.357-78.755-217.694-140.546-495.035-140.546-277.519 0-495.035 61.79-495.035 140.724 0 64.29 139.117 106.972 268.947 125.902 3.036 0.357 6.072-1.786 6.429-4.822 1.25-9.644 10.179-16.43 19.823-15.001 9.644 1.25 16.43 10.179 15.001 19.823-3.215 22.144-23.93 37.681-46.253 34.645-47.86-6.965-117.508-19.823-177.691-42.503-80.541-30.181-121.437-69.826-121.437-117.865 0-31.074 17.501-58.933 51.789-83.042 28.931-20.18 70.005-37.86 121.973-52.146 95.364-26.43 221.98-40.896 356.632-40.896 134.474 0 261.268 14.465 356.096 40.539 52.146 14.465 93.042 31.967 121.973 52.146 34.288 24.109 51.789 51.968 51.789 83.042 0 0.179 0 0.179 0 0.357-0.179 48.039-41.253 87.863-122.33 118.044zM514.857 122.977l16.073-15.001 15.894 15.18c11.787 11.251 289.663 280.377 289.663 531.108 0 168.583-137.152 305.736-305.736 305.736s-305.736-137.152-305.736-305.736c0-257.518 278.055-520.215 289.842-531.287zM385.92 663.908c0 79.827 65.005 144.832 144.832 144.832s144.832-65.005 144.832-144.832c0-79.827-65.005-144.832-144.832-144.832s-144.832 65.005-144.832 144.832z" />
<glyph unicode="&#xe913;" glyph-name="list" horiz-adv-x="1143" d="M129.392 895.304c0-35.731-28.965-64.696-64.696-64.696s-64.696 28.965-64.696 64.696c0 35.731 28.965 64.696 64.696 64.696s64.696-28.965 64.696-64.696zM129.392 612.523c0-35.731-28.965-64.696-64.696-64.696s-64.696 28.965-64.696 64.696c0 35.731 28.965 64.696 64.696 64.696s64.696-28.965 64.696-64.696zM129.392 317.84c0-35.731-28.965-64.696-64.696-64.696s-64.696 28.965-64.696 64.696c0 35.731 28.965 64.696 64.696 64.696s64.696-28.965 64.696-64.696zM129.392 0.696c0-35.731-28.965-64.696-64.696-64.696s-64.696 28.965-64.696 64.696c0 35.731 28.965 64.696 64.696 64.696s64.696-28.965 64.696-64.696zM247.841 853.837h853.525c22.845 0 41.467 18.622 41.467 41.467s-18.622 41.467-41.467 41.467h-853.525c-22.845 0-41.467-18.622-41.467-41.467s18.622-41.467 41.467-41.467zM1101.366 653.99h-853.525c-22.845 0-41.467-18.622-41.467-41.467s18.622-41.467 41.467-41.467h853.525c22.845 0 41.467 18.622 41.467 41.467 0 23.037-18.622 41.467-41.467 41.467zM1101.366 359.115h-853.525c-22.845 0-41.467-18.622-41.467-41.467s18.622-41.467 41.467-41.467h853.525c22.845 0 41.467 18.622 41.467 41.467 0 23.037-18.622 41.467-41.467 41.467zM1101.366 42.163h-853.525c-22.845 0-41.467-18.622-41.467-41.467s18.622-41.467 41.467-41.467h853.525c22.845 0 41.467 18.622 41.467 41.467s-18.622 41.467-41.467 41.467z" />
<glyph unicode="&#xe914;" glyph-name="logo" horiz-adv-x="1860" d="M1707.708 713.765c0-0.625 7.5-180.926-7.5-253.735-7.812-38.123-30.623-63.121-59.371-79.058-35.623-19.686-79.683-24.374-112.806-22.811-13.437 0.625-26.873 1.25-25.623 28.123s14.687 26.248 28.123 25.623c25.936-1.25 59.371 1.875 84.37 15.937 15.937 8.749 28.436 22.499 32.81 43.122 13.749 65.621 6.25 240.298 6.25 240.61-0.625 13.437-1.25 26.873 25.623 27.811 26.873 1.25 27.498-12.187 28.123-25.623v0zM1800.203 444.094c22.186 0 40.31-18.124 40.31-40.31s-18.124-40.31-40.31-40.31c-22.186 0-40.31 18.124-40.31 40.31 0 22.499 18.124 40.31 40.31 40.31v0zM1498.346 521.589v196.238c0 49.684 20.311 94.994 53.122 127.805s77.808 53.122 127.805 53.122c49.684 0 94.994-20.311 127.805-53.122s53.122-77.808 53.122-127.805v-195.926c0-13.437 0-26.873-26.873-26.873s-26.873 13.437-26.873 26.873v195.926c0 34.998-14.374 66.871-37.498 89.682-23.124 23.124-54.684 37.498-89.682 37.498s-66.871-14.374-89.682-37.498c-23.124-23.124-37.498-54.684-37.498-89.682v-195.926c0-13.437 0-26.873-26.873-26.873s-26.873 13.437-26.873 26.561v0zM1297.421 504.090c18.436 0 33.435-14.999 33.435-33.435s-14.999-33.435-33.435-33.435c-18.436 0-33.435 14.999-33.435 33.435s14.999 33.435 33.435 33.435v0zM1054.623 412.846h117.18c0 1.875 0 3.437 0 5.312v111.243h-112.806c-13.437 0-26.873 0-26.873 26.873s13.437 26.873 26.873 26.873h112.806v85.932c0 2.5 0 5.312 0.312 7.812h-117.493c-13.437 0-26.873 0-26.873 26.873s13.437 26.873 26.873 26.873h290.92c13.437 0 26.873 0 26.873-26.873s-13.437-26.873-26.873-26.873h-120.305c0.312-2.5 0.312-5 0.312-7.812v-86.245h115.618c13.437 0 26.873 0 26.873-26.873s-13.437-26.873-26.873-26.873h-115.618v-111.243c0-1.875 0-3.75 0-5.312h120.305c13.437 0 26.873 0 26.873-26.873s-13.437-26.873-26.873-26.873h-290.92c-13.437 0-26.873 0-26.873 26.873-0.312 27.186 13.124 27.186 26.561 27.186v0zM978.69 778.136c0 26.561 10.937 50.622 28.436 68.121v0c17.499 17.499 41.56 28.123 67.808 28.123h247.172c26.561 0 50.622-10.937 68.121-28.123 17.499-17.499 28.123-41.56 28.123-68.121 0-13.437 0-26.873-26.873-26.873s-26.873 13.437-26.873 26.873c0 11.562-4.687 22.499-12.499 29.998-7.812 7.812-18.436 12.499-29.998 12.499h-247.172c-11.874 0-22.499-4.687-30.311-12.499v0c-7.812-7.812-12.499-18.436-12.499-29.998 0-13.437 0-26.873-26.873-26.873-26.561 0-26.561 13.437-26.561 26.873v0zM1198.677 960c18.436 0 33.435-14.999 33.435-33.435s-14.999-33.435-33.435-33.435c-18.436 0-33.435 14.999-33.435 33.435s14.999 33.435 33.435 33.435v0zM497.782 384.723v409.35c0 31.561 12.812 59.996 33.435 80.933 20.624 20.624 49.372 33.435 80.933 33.435 13.437 0 26.873 0 26.873-26.873s-13.437-26.873-26.873-26.873c-16.561 0-31.873-6.875-42.81-17.811s-17.811-26.248-17.811-42.81v-409.662c0-13.437 0-26.873-26.873-26.873-26.873 0.312-26.873 13.749-26.873 27.186v0zM839.011 705.641v-237.173c0-15.624 6.562-29.998 16.874-40.31s24.686-16.874 40.31-16.874h11.874c13.437 0 26.873 0 26.873-26.873s-13.437-26.873-26.873-26.873h-11.874c-30.623 0-58.121 12.499-78.433 32.498-19.999 19.999-32.498 47.81-32.498 78.433v237.173h-60.621v-320.918c0-13.437 0-26.873-26.873-26.873s-26.873 13.437-26.873 26.873v320.918h-46.247c-13.437 0-26.873 0-26.873 26.873s13.437 26.873 26.873 26.873h46.247v128.43c0 13.437 0 26.873 26.873 26.873s26.873-13.437 26.873-26.873v-128.43h183.739c13.437 0 26.873 0 26.873-26.873s-13.437-26.873-26.873-26.873h-69.371zM810.576 911.565c18.436 0 33.435-14.999 33.435-33.435s-14.999-33.435-33.435-33.435c-18.436 0-33.435 14.999-33.435 33.435-0.312 18.436 14.999 33.435 33.435 33.435v0zM249.047 960c18.436 0 33.435-14.999 33.435-33.435s-14.999-33.435-33.435-33.435c-18.436 0-33.435 14.999-33.435 33.435s14.999 33.435 33.435 33.435v0zM133.117 759.7h89.057v8.749c0 13.437 0 26.873 26.873 26.873s26.873-13.437 26.873-26.873v-8.749h34.998c30.311 0 57.809-12.499 77.495-32.186 19.999-19.999 32.186-47.497 32.186-77.495 0-30.311-12.499-57.809-32.186-77.495-19.999-19.999-47.497-32.186-77.495-32.186h-34.998v-156.865c0-13.437 0-26.873-26.873-26.873s-26.873 13.437-26.873 26.873v156.865h-89.057c-13.437 0-26.873 0-26.873 26.873s13.437 26.873 26.873 26.873h89.057v29.373h-89.057c-13.437 0-26.873 0-26.873 26.873s13.437 26.873 26.873 26.873h89.057v29.373h-89.057c-13.437 0-26.873 0-26.873 26.873s13.437 26.248 26.873 26.248v0zM275.921 593.46h34.998c15.312 0 29.373 6.25 39.685 16.561 3.75 3.75 7.187 8.125 9.687 12.812h-84.37v-29.373zM360.291 676.58c-2.5 4.687-5.937 9.062-9.687 12.812-10.312 10.312-24.374 16.561-39.685 16.561h-34.998v-29.373h84.37zM130.93 438.157l-28.436 28.436c-9.374 9.374-19.061 19.061 0 37.81 19.061 19.061 28.436 9.374 37.81 0l46.56-46.56c0.312-0.312 0.625-0.625 0.937-0.937 0 0 0 0 0 0s0 0 0 0c5.625-5.625 11.249-11.249 10.937-18.749 0.312-7.5-5-13.124-10.624-18.436 0 0-0.312-0.312-0.312-0.312v0l-47.497-47.497c-9.374-9.374-19.061-19.061-37.81 0-19.061 19.061-9.374 28.436 0 37.81l28.436 28.436zM374.352 438.157l28.436-28.436c9.374-9.374 19.061-19.061 0-37.81-19.061-19.061-28.436-9.374-37.81 0l-47.185 47.185c0 0 0 0-0.312 0.312 0 0 0 0 0 0s-0.312 0.312-0.312 0.312c-5.625 5.625-10.937 10.937-10.624 18.436-0.312 7.5 5.312 13.124 10.937 18.749 0 0 0 0 0 0v0l47.497 47.497c9.374 9.374 19.061 19.061 37.81 0 19.061-19.061 9.374-28.436 0-37.81l-28.436-28.436zM0 383.785v372.165c0 32.498 13.437 62.184 34.685 83.432 21.561 21.561 50.934 34.685 83.432 34.685h280.295c13.437 0 26.873 0 26.873-26.873s-13.437-26.873-26.873-26.873h-279.983c-17.811 0-34.060-7.187-45.622-19.061-11.874-11.874-19.061-27.811-19.061-45.622v-372.165c0-13.437 0-26.873-26.873-26.873s-26.873 14.062-26.873 27.186v0zM0 207.546c0 10.937 2.5 19.061 7.5 24.061 5 5.312 12.499 7.812 22.499 7.812s17.499-2.812 22.499-8.125c5-5.312 7.5-13.437 7.5-24.061v-91.557l109.993 114.681c2.812 2.812 5.937 5 9.687 6.562s7.187 2.5 10.937 2.5c7.812 0 14.374-2.5 19.686-7.5s7.812-10.937 7.812-18.124c0-3.125-0.625-6.25-1.562-9.062s-2.5-5.312-4.687-7.5l-79.058-79.683 89.682-123.117 0.312-0.312c7.5-10.624 10.937-19.374 10.937-26.248 0-8.125-2.5-14.999-7.812-19.999-5.312-5.312-11.874-7.812-19.999-7.812-5.312 0-10.624 1.562-15.624 4.062-5 2.812-9.062 6.562-12.812 11.874l-86.557 121.555-30.936-30.936v-74.058c0-10.624-2.5-18.749-7.5-24.061s-12.499-7.812-22.499-7.812c-9.999 0-17.499 2.812-22.499 8.125s-7.5 13.124-7.5 23.749v234.986zM291.857-25.877c0 9.062 3.437 16.874 9.999 23.749 6.562 6.562 14.374 9.999 23.749 9.999s17.499-3.125 24.061-9.687c6.562-6.562 9.999-14.374 9.999-23.749s-3.437-17.499-9.999-24.061c-6.875-6.562-14.687-9.999-24.061-9.999-9.062 0-16.874 3.437-23.749 9.999s-9.999 14.687-9.999 23.749v0zM411.537 207.546c0 10.937 2.5 19.061 7.5 24.061 5 5.312 12.499 7.812 22.499 7.812s17.499-2.812 22.811-8.125c5-5.312 7.812-13.437 7.812-24.061v-154.053c0-22.499 4.375-39.060 13.437-49.372s23.124-15.624 42.81-15.624c19.686 0 34.060 5 43.122 15.312s13.437 26.873 13.437 49.372v154.053c0 10.937 2.5 19.061 7.5 24.061 5 5.312 12.499 7.812 22.499 7.812s17.499-2.812 22.499-8.125c5-5.312 7.5-13.437 7.5-24.061v-160.615c0-35.623-9.999-63.121-29.998-82.182s-48.747-28.748-86.557-28.748c-37.81 0-66.871 9.374-86.87 28.436s-30.311 46.56-30.311 82.495v161.553h0.312zM876.509 72.867v-76.245h70.933c16.874 0 29.061 3.125 36.56 9.062s11.562 15.624 11.562 28.748c0 13.437-3.75 23.436-11.249 29.373s-19.999 9.062-37.185 9.062h-70.621zM876.509 185.047v-62.184h68.433c14.687 0 25.623 2.5 32.498 7.5s10.312 13.124 10.312 24.061c0 10.624-3.437 18.436-9.999 23.124s-17.811 7.187-33.123 7.187h-68.121v0.312zM855.573-55.875c-13.749 0-23.124 3.125-28.436 9.687s-7.812 18.436-7.812 36.248v199.675c0 17.811 2.5 29.998 7.812 36.248 5.312 6.562 14.687 9.687 28.436 9.687h100.931c29.998 0 52.497-6.25 68.121-19.061 15.624-12.499 23.436-30.936 23.436-54.997 0-14.687-2.812-27.186-8.749-36.873-5.937-9.999-14.374-17.499-26.248-22.811 14.999-5.937 26.248-14.999 33.748-26.248s11.249-25.623 11.249-42.497c0-28.436-9.374-50.309-27.811-65.621s-44.685-23.124-78.433-23.124h-96.244v-0.312zM1213.051 177.235l-40.31-124.055h80.933l-40.623 124.055zM1143.368-37.752c-2.5-7.5-5.937-12.812-10.624-16.561-4.687-3.437-10.937-5.312-18.436-5.312-8.437 0-15.624 2.5-20.936 7.187s-8.125 11.249-8.125 19.061c0 2.812 0.312 5.312 0.625 7.812 0.625 2.5 1.25 5 2.187 7.812l80.62 226.549c4.687 13.124 9.687 21.561 15.312 25.311s15.312 5.625 28.748 5.625c12.812 0 21.874-1.875 27.811-5.312 5.625-3.437 10.937-11.874 15.624-24.686l82.182-227.174c0.937-2.5 1.875-5.312 2.187-7.812 0.625-2.5 0.625-5 0.625-7.812 0-7.812-2.812-14.062-8.125-19.061s-12.499-7.187-21.249-7.187c-7.5 0-13.437 1.875-18.124 5.312s-8.125 9.062-10.624 16.561l-13.749 41.872h-113.118l-12.812-42.185zM1440.225 72.867v-76.245h70.933c16.874 0 29.061 3.125 36.56 9.062s11.562 15.624 11.562 28.748c0 13.437-3.75 23.436-11.249 29.373s-19.999 9.062-37.185 9.062h-70.621zM1440.225 185.047v-62.184h68.433c14.687 0 25.623 2.5 32.498 7.5s10.312 13.124 10.312 24.061c0 10.624-3.437 18.436-9.999 23.124s-17.811 7.187-33.123 7.187h-68.121v0.312zM1418.976-55.875c-13.749 0-23.124 3.125-28.436 9.687s-7.812 18.436-7.812 36.248v199.675c0 17.811 2.5 29.998 7.812 36.248 5.312 6.562 14.687 9.687 28.436 9.687h100.931c29.998 0 52.497-6.25 68.121-19.061 15.624-12.499 23.436-30.936 23.436-54.997 0-14.687-2.812-27.186-8.749-36.873-5.937-9.999-14.374-17.499-26.248-22.811 14.999-5.937 26.248-14.999 33.748-26.248s11.249-25.623 11.249-42.497c0-28.436-9.374-50.309-27.811-65.621s-44.685-23.124-78.433-23.124h-96.244v-0.312zM1647.087 183.172c-3.437 5.625-5.625 10.937-7.187 15.312-1.562 4.687-2.187 9.062-2.187 13.437 0 8.125 2.5 14.687 7.812 19.999 5.312 5 11.874 7.5 20.624 7.5 8.125 0 14.687-1.875 19.999-5.937s10.937-12.187 17.499-24.998l49.372-98.431 47.81 104.994c3.75 8.437 8.437 14.999 13.749 18.749 5.312 4.062 11.562 5.937 18.749 5.937 8.437 0 15.624-2.187 21.249-6.875 5.625-4.375 8.437-10.312 8.437-17.186 0-3.437-0.625-6.875-1.562-10.937s-2.812-8.125-4.687-12.187l-73.433-139.679v-80.308c0-10.624-2.5-18.749-7.5-24.061s-12.499-7.812-22.499-7.812c-9.999 0-17.499 2.812-22.499 8.125s-7.5 13.124-7.5 23.749v80.308l-76.245 130.305z" />
</font>
</defs>
</svg>
